<svg width="58" height="41" viewBox="0 0 58 41" fill="none" xmlns="http://www.w3.org/2000/svg">
<path fill-rule="evenodd" clip-rule="evenodd" d="M29.2013 7.52675C29.281 7.23891 29.6865 7.23163 29.7765 7.51642L32.5213 16.2043C32.5513 16.299 32.6262 16.3728 32.7213 16.4013L40.5611 18.7497C40.8407 18.8334 40.8482 19.2265 40.5721 19.3209L32.181 22.1891C32.0873 22.2211 32.0154 22.2974 31.9889 22.3929L29.7417 30.5097C29.662 30.7976 29.2565 30.8048 29.1665 30.52L26.4216 21.8322C26.3917 21.7374 26.3168 21.6637 26.2216 21.6351L18.3819 19.2868C18.1023 19.203 18.0948 18.8099 18.3709 18.7155L26.7619 15.8474C26.8557 15.8153 26.9276 15.7391 26.954 15.6436L29.2013 7.52675Z" fill="#F49B0B"/>
</svg>
