<svg width="57" height="40" viewBox="0 0 57 40" fill="none" xmlns="http://www.w3.org/2000/svg">
<path fill-rule="evenodd" clip-rule="evenodd" d="M28.5245 7.36563C28.6042 7.07794 29.0095 7.07065 29.0996 7.35529L31.7732 15.8055C31.8031 15.9002 31.878 15.974 31.9732 16.0024L39.6073 18.2859C39.887 18.3696 39.8945 18.7629 39.6182 18.8573L31.4453 21.6469C31.3515 21.6789 31.2796 21.7551 31.2531 21.8506L29.0647 29.7434C28.985 30.0311 28.5797 30.0384 28.4896 29.7538L25.816 21.3035C25.786 21.2088 25.7111 21.135 25.6159 21.1066L17.9819 18.8231C17.7022 18.7394 17.6947 18.3461 17.971 18.2518L26.1438 15.4622C26.2376 15.4302 26.3095 15.3539 26.336 15.2585L28.5245 7.36563Z" fill="white"/>
</svg>
