<svg width="34" height="24" viewBox="0 0 34 24" fill="none" xmlns="http://www.w3.org/2000/svg">
<path fill-rule="evenodd" clip-rule="evenodd" d="M17.0062 4.80923C17.086 4.52154 17.4913 4.51425 17.5813 4.79889L19.0443 9.4229C19.0743 9.51761 19.1492 9.59135 19.2444 9.61982L23.4048 10.8643C23.6845 10.9479 23.692 11.3413 23.4157 11.4356L18.9268 12.9678C18.833 12.9998 18.761 13.0761 18.7346 13.1716L17.5465 17.4565C17.4667 17.7442 17.0614 17.7515 16.9714 17.4668L15.5084 12.8428C15.4784 12.7481 15.4035 12.6744 15.3083 12.6459L11.1479 11.4014C10.8682 11.3178 10.8607 10.9244 11.137 10.8301L15.6259 9.29794C15.7197 9.26593 15.7917 9.18967 15.8181 9.09418L17.0062 4.80923Z" fill="#27AE60"/>
</svg>
